<mxfile host="app.diagrams.net" modified="2023-05-08T17:09:58.198Z" agent="Mozilla/5.0 (Windows NT 10.0; Win64; x64) AppleWebKit/537.36 (KHTML, like Gecko) Chrome/112.0.0.0 Safari/537.36" etag="AWy8l0mrTBrZaIeu1jp2" version="21.2.9" type="device">
  <diagram name="Page-1" id="RTpb9jBLFCNuETnYT4DG">
    <mxGraphModel dx="1434" dy="796" grid="1" gridSize="10" guides="1" tooltips="1" connect="1" arrows="1" fold="1" page="1" pageScale="1" pageWidth="1169" pageHeight="827" math="0" shadow="0">
      <root>
        <mxCell id="0" />
        <mxCell id="1" parent="0" />
        <mxCell id="KkEooCCZQm8k2TNRVlUi-1" value="" style="endArrow=none;html=1;rounded=0;" edge="1" parent="1">
          <mxGeometry width="50" height="50" relative="1" as="geometry">
            <mxPoint x="470" y="490" as="sourcePoint" />
            <mxPoint x="470" y="80" as="targetPoint" />
          </mxGeometry>
        </mxCell>
        <mxCell id="KkEooCCZQm8k2TNRVlUi-2" value="" style="endArrow=none;html=1;rounded=0;" edge="1" parent="1">
          <mxGeometry width="50" height="50" relative="1" as="geometry">
            <mxPoint x="470" y="490" as="sourcePoint" />
            <mxPoint x="1110" y="490" as="targetPoint" />
          </mxGeometry>
        </mxCell>
        <mxCell id="KkEooCCZQm8k2TNRVlUi-3" value="0" style="text;html=1;strokeColor=none;fillColor=none;align=center;verticalAlign=middle;whiteSpace=wrap;rounded=0;" vertex="1" parent="1">
          <mxGeometry x="450" y="500" width="60" height="30" as="geometry" />
        </mxCell>
        <mxCell id="KkEooCCZQm8k2TNRVlUi-4" value="1" style="text;html=1;strokeColor=none;fillColor=none;align=center;verticalAlign=middle;whiteSpace=wrap;rounded=0;" vertex="1" parent="1">
          <mxGeometry x="500" y="500" width="60" height="30" as="geometry" />
        </mxCell>
        <mxCell id="KkEooCCZQm8k2TNRVlUi-5" value="2" style="text;html=1;strokeColor=none;fillColor=none;align=center;verticalAlign=middle;whiteSpace=wrap;rounded=0;" vertex="1" parent="1">
          <mxGeometry x="550" y="500" width="60" height="30" as="geometry" />
        </mxCell>
        <mxCell id="KkEooCCZQm8k2TNRVlUi-6" value="3" style="text;html=1;strokeColor=none;fillColor=none;align=center;verticalAlign=middle;whiteSpace=wrap;rounded=0;" vertex="1" parent="1">
          <mxGeometry x="600" y="500" width="60" height="30" as="geometry" />
        </mxCell>
        <mxCell id="KkEooCCZQm8k2TNRVlUi-7" value="4" style="text;html=1;strokeColor=none;fillColor=none;align=center;verticalAlign=middle;whiteSpace=wrap;rounded=0;" vertex="1" parent="1">
          <mxGeometry x="650" y="500" width="60" height="30" as="geometry" />
        </mxCell>
        <mxCell id="KkEooCCZQm8k2TNRVlUi-8" value="0" style="text;html=1;strokeColor=none;fillColor=none;align=center;verticalAlign=middle;whiteSpace=wrap;rounded=0;" vertex="1" parent="1">
          <mxGeometry x="690" y="500" width="60" height="30" as="geometry" />
        </mxCell>
        <mxCell id="KkEooCCZQm8k2TNRVlUi-9" value="5" style="text;html=1;strokeColor=none;fillColor=none;align=center;verticalAlign=middle;whiteSpace=wrap;rounded=0;" vertex="1" parent="1">
          <mxGeometry x="740" y="500" width="60" height="30" as="geometry" />
        </mxCell>
        <mxCell id="KkEooCCZQm8k2TNRVlUi-10" value="6" style="text;html=1;strokeColor=none;fillColor=none;align=center;verticalAlign=middle;whiteSpace=wrap;rounded=0;" vertex="1" parent="1">
          <mxGeometry x="790" y="500" width="60" height="30" as="geometry" />
        </mxCell>
        <mxCell id="KkEooCCZQm8k2TNRVlUi-11" value="7" style="text;html=1;strokeColor=none;fillColor=none;align=center;verticalAlign=middle;whiteSpace=wrap;rounded=0;" vertex="1" parent="1">
          <mxGeometry x="830" y="500" width="60" height="30" as="geometry" />
        </mxCell>
        <mxCell id="KkEooCCZQm8k2TNRVlUi-12" value="8" style="text;html=1;strokeColor=none;fillColor=none;align=center;verticalAlign=middle;whiteSpace=wrap;rounded=0;" vertex="1" parent="1">
          <mxGeometry x="870" y="500" width="60" height="30" as="geometry" />
        </mxCell>
        <mxCell id="KkEooCCZQm8k2TNRVlUi-13" value="9" style="text;html=1;strokeColor=none;fillColor=none;align=center;verticalAlign=middle;whiteSpace=wrap;rounded=0;" vertex="1" parent="1">
          <mxGeometry x="900" y="500" width="60" height="30" as="geometry" />
        </mxCell>
        <mxCell id="KkEooCCZQm8k2TNRVlUi-14" value="10" style="text;html=1;strokeColor=none;fillColor=none;align=center;verticalAlign=middle;whiteSpace=wrap;rounded=0;" vertex="1" parent="1">
          <mxGeometry x="930" y="500" width="60" height="30" as="geometry" />
        </mxCell>
        <mxCell id="KkEooCCZQm8k2TNRVlUi-15" value="11" style="text;html=1;strokeColor=none;fillColor=none;align=center;verticalAlign=middle;whiteSpace=wrap;rounded=0;" vertex="1" parent="1">
          <mxGeometry x="960" y="500" width="60" height="30" as="geometry" />
        </mxCell>
        <mxCell id="KkEooCCZQm8k2TNRVlUi-16" value="12" style="text;html=1;strokeColor=none;fillColor=none;align=center;verticalAlign=middle;whiteSpace=wrap;rounded=0;" vertex="1" parent="1">
          <mxGeometry x="990" y="500" width="60" height="30" as="geometry" />
        </mxCell>
        <mxCell id="KkEooCCZQm8k2TNRVlUi-17" value="13" style="text;html=1;strokeColor=none;fillColor=none;align=center;verticalAlign=middle;whiteSpace=wrap;rounded=0;" vertex="1" parent="1">
          <mxGeometry x="1020" y="500" width="60" height="30" as="geometry" />
        </mxCell>
        <mxCell id="KkEooCCZQm8k2TNRVlUi-18" value="14" style="text;html=1;strokeColor=none;fillColor=none;align=center;verticalAlign=middle;whiteSpace=wrap;rounded=0;" vertex="1" parent="1">
          <mxGeometry x="1070" y="500" width="60" height="30" as="geometry" />
        </mxCell>
        <mxCell id="KkEooCCZQm8k2TNRVlUi-19" value="Sprint 1&amp;nbsp;&lt;br&gt;200 HRS" style="text;html=1;strokeColor=none;fillColor=none;align=center;verticalAlign=middle;whiteSpace=wrap;rounded=0;" vertex="1" parent="1">
          <mxGeometry x="290" y="80" width="60" height="30" as="geometry" />
        </mxCell>
        <mxCell id="KkEooCCZQm8k2TNRVlUi-20" value="" style="endArrow=none;html=1;rounded=0;" edge="1" parent="1">
          <mxGeometry width="50" height="50" relative="1" as="geometry">
            <mxPoint x="470" y="120" as="sourcePoint" />
            <mxPoint x="530" y="120" as="targetPoint" />
          </mxGeometry>
        </mxCell>
        <mxCell id="KkEooCCZQm8k2TNRVlUi-21" value="" style="endArrow=none;dashed=1;html=1;dashPattern=1 3;strokeWidth=2;rounded=0;" edge="1" parent="1">
          <mxGeometry width="50" height="50" relative="1" as="geometry">
            <mxPoint x="530" y="490" as="sourcePoint" />
            <mxPoint x="530" y="100" as="targetPoint" />
          </mxGeometry>
        </mxCell>
        <mxCell id="KkEooCCZQm8k2TNRVlUi-22" value="" style="endArrow=none;dashed=1;html=1;dashPattern=1 3;strokeWidth=2;rounded=0;" edge="1" parent="1">
          <mxGeometry width="50" height="50" relative="1" as="geometry">
            <mxPoint x="579.5" y="490" as="sourcePoint" />
            <mxPoint x="579.5" y="100" as="targetPoint" />
          </mxGeometry>
        </mxCell>
        <mxCell id="KkEooCCZQm8k2TNRVlUi-23" value="" style="endArrow=none;dashed=1;html=1;dashPattern=1 3;strokeWidth=2;rounded=0;" edge="1" parent="1">
          <mxGeometry width="50" height="50" relative="1" as="geometry">
            <mxPoint x="629.5" y="490" as="sourcePoint" />
            <mxPoint x="629.5" y="100" as="targetPoint" />
          </mxGeometry>
        </mxCell>
        <mxCell id="KkEooCCZQm8k2TNRVlUi-24" value="" style="endArrow=none;dashed=1;html=1;dashPattern=1 3;strokeWidth=2;rounded=0;" edge="1" parent="1">
          <mxGeometry width="50" height="50" relative="1" as="geometry">
            <mxPoint x="679.5" y="490" as="sourcePoint" />
            <mxPoint x="679.5" y="100" as="targetPoint" />
          </mxGeometry>
        </mxCell>
        <mxCell id="KkEooCCZQm8k2TNRVlUi-25" value="" style="endArrow=none;dashed=1;html=1;dashPattern=1 3;strokeWidth=2;rounded=0;" edge="1" parent="1">
          <mxGeometry width="50" height="50" relative="1" as="geometry">
            <mxPoint x="719.5" y="490" as="sourcePoint" />
            <mxPoint x="719.5" y="100" as="targetPoint" />
          </mxGeometry>
        </mxCell>
        <mxCell id="KkEooCCZQm8k2TNRVlUi-26" value="" style="endArrow=none;dashed=1;html=1;dashPattern=1 3;strokeWidth=2;rounded=0;" edge="1" parent="1">
          <mxGeometry width="50" height="50" relative="1" as="geometry">
            <mxPoint x="769.5" y="490" as="sourcePoint" />
            <mxPoint x="769.5" y="100" as="targetPoint" />
          </mxGeometry>
        </mxCell>
        <mxCell id="KkEooCCZQm8k2TNRVlUi-27" value="" style="endArrow=none;dashed=1;html=1;dashPattern=1 3;strokeWidth=2;rounded=0;" edge="1" parent="1">
          <mxGeometry width="50" height="50" relative="1" as="geometry">
            <mxPoint x="819.5" y="490" as="sourcePoint" />
            <mxPoint x="819.5" y="100" as="targetPoint" />
          </mxGeometry>
        </mxCell>
        <mxCell id="KkEooCCZQm8k2TNRVlUi-28" value="" style="endArrow=none;dashed=1;html=1;dashPattern=1 3;strokeWidth=2;rounded=0;" edge="1" parent="1">
          <mxGeometry width="50" height="50" relative="1" as="geometry">
            <mxPoint x="859.5" y="490" as="sourcePoint" />
            <mxPoint x="859.5" y="100" as="targetPoint" />
          </mxGeometry>
        </mxCell>
        <mxCell id="KkEooCCZQm8k2TNRVlUi-29" value="" style="endArrow=none;dashed=1;html=1;dashPattern=1 3;strokeWidth=2;rounded=0;" edge="1" parent="1">
          <mxGeometry width="50" height="50" relative="1" as="geometry">
            <mxPoint x="899" y="490" as="sourcePoint" />
            <mxPoint x="899" y="100" as="targetPoint" />
          </mxGeometry>
        </mxCell>
        <mxCell id="KkEooCCZQm8k2TNRVlUi-30" value="" style="endArrow=none;dashed=1;html=1;dashPattern=1 3;strokeWidth=2;rounded=0;" edge="1" parent="1">
          <mxGeometry width="50" height="50" relative="1" as="geometry">
            <mxPoint x="929" y="490" as="sourcePoint" />
            <mxPoint x="929" y="100" as="targetPoint" />
          </mxGeometry>
        </mxCell>
        <mxCell id="KkEooCCZQm8k2TNRVlUi-31" value="" style="endArrow=none;dashed=1;html=1;dashPattern=1 3;strokeWidth=2;rounded=0;" edge="1" parent="1">
          <mxGeometry width="50" height="50" relative="1" as="geometry">
            <mxPoint x="959" y="490" as="sourcePoint" />
            <mxPoint x="959" y="100" as="targetPoint" />
          </mxGeometry>
        </mxCell>
        <mxCell id="KkEooCCZQm8k2TNRVlUi-32" value="" style="endArrow=none;dashed=1;html=1;dashPattern=1 3;strokeWidth=2;rounded=0;" edge="1" parent="1">
          <mxGeometry width="50" height="50" relative="1" as="geometry">
            <mxPoint x="989" y="490" as="sourcePoint" />
            <mxPoint x="989" y="100" as="targetPoint" />
          </mxGeometry>
        </mxCell>
        <mxCell id="KkEooCCZQm8k2TNRVlUi-33" value="" style="endArrow=none;dashed=1;html=1;dashPattern=1 3;strokeWidth=2;rounded=0;" edge="1" parent="1">
          <mxGeometry width="50" height="50" relative="1" as="geometry">
            <mxPoint x="1020" y="300" as="sourcePoint" />
            <mxPoint x="1020" y="100" as="targetPoint" />
          </mxGeometry>
        </mxCell>
        <mxCell id="KkEooCCZQm8k2TNRVlUi-34" value="" style="endArrow=none;dashed=1;html=1;dashPattern=1 3;strokeWidth=2;rounded=0;" edge="1" parent="1">
          <mxGeometry width="50" height="50" relative="1" as="geometry">
            <mxPoint x="1049.5" y="490" as="sourcePoint" />
            <mxPoint x="1049.5" y="100" as="targetPoint" />
          </mxGeometry>
        </mxCell>
        <mxCell id="KkEooCCZQm8k2TNRVlUi-35" value="" style="endArrow=none;dashed=1;html=1;dashPattern=1 3;strokeWidth=2;rounded=0;" edge="1" parent="1">
          <mxGeometry width="50" height="50" relative="1" as="geometry">
            <mxPoint x="1099.5" y="490" as="sourcePoint" />
            <mxPoint x="1099.5" y="100" as="targetPoint" />
          </mxGeometry>
        </mxCell>
        <mxCell id="KkEooCCZQm8k2TNRVlUi-36" value="" style="endArrow=none;html=1;rounded=0;" edge="1" parent="1">
          <mxGeometry width="50" height="50" relative="1" as="geometry">
            <mxPoint x="580" y="170" as="sourcePoint" />
            <mxPoint x="530" y="120" as="targetPoint" />
          </mxGeometry>
        </mxCell>
        <mxCell id="KkEooCCZQm8k2TNRVlUi-38" value="" style="endArrow=none;html=1;rounded=0;" edge="1" parent="1">
          <mxGeometry width="50" height="50" relative="1" as="geometry">
            <mxPoint x="590" y="180" as="sourcePoint" />
            <mxPoint x="540" y="130" as="targetPoint" />
          </mxGeometry>
        </mxCell>
        <mxCell id="KkEooCCZQm8k2TNRVlUi-39" value="" style="endArrow=none;html=1;rounded=0;" edge="1" parent="1">
          <mxGeometry width="50" height="50" relative="1" as="geometry">
            <mxPoint x="630" y="220" as="sourcePoint" />
            <mxPoint x="590" y="180" as="targetPoint" />
          </mxGeometry>
        </mxCell>
        <mxCell id="KkEooCCZQm8k2TNRVlUi-40" value="" style="endArrow=none;html=1;rounded=0;" edge="1" parent="1">
          <mxGeometry width="50" height="50" relative="1" as="geometry">
            <mxPoint x="680" y="220" as="sourcePoint" />
            <mxPoint x="630" y="220" as="targetPoint" />
          </mxGeometry>
        </mxCell>
        <mxCell id="KkEooCCZQm8k2TNRVlUi-41" value="" style="endArrow=none;html=1;rounded=0;" edge="1" parent="1">
          <mxGeometry width="50" height="50" relative="1" as="geometry">
            <mxPoint x="720" y="250" as="sourcePoint" />
            <mxPoint x="680" y="220" as="targetPoint" />
          </mxGeometry>
        </mxCell>
        <mxCell id="KkEooCCZQm8k2TNRVlUi-42" value="" style="endArrow=none;html=1;rounded=0;" edge="1" parent="1">
          <mxGeometry width="50" height="50" relative="1" as="geometry">
            <mxPoint x="770" y="270" as="sourcePoint" />
            <mxPoint x="720" y="250" as="targetPoint" />
          </mxGeometry>
        </mxCell>
        <mxCell id="KkEooCCZQm8k2TNRVlUi-43" value="" style="endArrow=none;html=1;rounded=0;" edge="1" parent="1">
          <mxGeometry width="50" height="50" relative="1" as="geometry">
            <mxPoint x="820" y="290" as="sourcePoint" />
            <mxPoint x="770" y="270" as="targetPoint" />
          </mxGeometry>
        </mxCell>
        <mxCell id="KkEooCCZQm8k2TNRVlUi-44" value="" style="endArrow=none;html=1;rounded=0;" edge="1" parent="1">
          <mxGeometry width="50" height="50" relative="1" as="geometry">
            <mxPoint x="870" y="310" as="sourcePoint" />
            <mxPoint x="820" y="290" as="targetPoint" />
          </mxGeometry>
        </mxCell>
        <mxCell id="KkEooCCZQm8k2TNRVlUi-45" value="" style="endArrow=none;html=1;rounded=0;" edge="1" parent="1">
          <mxGeometry width="50" height="50" relative="1" as="geometry">
            <mxPoint x="920" y="330" as="sourcePoint" />
            <mxPoint x="870" y="310" as="targetPoint" />
          </mxGeometry>
        </mxCell>
        <mxCell id="KkEooCCZQm8k2TNRVlUi-46" value="" style="endArrow=none;html=1;rounded=0;" edge="1" parent="1">
          <mxGeometry width="50" height="50" relative="1" as="geometry">
            <mxPoint x="970" y="330" as="sourcePoint" />
            <mxPoint x="920" y="330" as="targetPoint" />
          </mxGeometry>
        </mxCell>
        <mxCell id="KkEooCCZQm8k2TNRVlUi-47" value="" style="endArrow=none;html=1;rounded=0;" edge="1" parent="1">
          <mxGeometry width="50" height="50" relative="1" as="geometry">
            <mxPoint x="1050" y="430" as="sourcePoint" />
            <mxPoint x="970" y="330" as="targetPoint" />
          </mxGeometry>
        </mxCell>
        <mxCell id="KkEooCCZQm8k2TNRVlUi-48" value="" style="endArrow=none;html=1;rounded=0;" edge="1" parent="1">
          <mxGeometry width="50" height="50" relative="1" as="geometry">
            <mxPoint x="1100" y="490" as="sourcePoint" />
            <mxPoint x="1050" y="430" as="targetPoint" />
          </mxGeometry>
        </mxCell>
        <mxCell id="KkEooCCZQm8k2TNRVlUi-49" value="epic3" style="text;html=1;strokeColor=none;fillColor=none;align=center;verticalAlign=middle;whiteSpace=wrap;rounded=0;" vertex="1" parent="1">
          <mxGeometry x="520" y="100" width="60" height="30" as="geometry" />
        </mxCell>
        <mxCell id="KkEooCCZQm8k2TNRVlUi-50" value="epic2" style="text;html=1;strokeColor=none;fillColor=none;align=center;verticalAlign=middle;whiteSpace=wrap;rounded=0;" vertex="1" parent="1">
          <mxGeometry x="570" y="140" width="60" height="30" as="geometry" />
        </mxCell>
        <mxCell id="KkEooCCZQm8k2TNRVlUi-51" value="epic1" style="text;html=1;strokeColor=none;fillColor=none;align=center;verticalAlign=middle;whiteSpace=wrap;rounded=0;" vertex="1" parent="1">
          <mxGeometry x="670" y="190" width="60" height="30" as="geometry" />
        </mxCell>
        <mxCell id="KkEooCCZQm8k2TNRVlUi-52" value="epic5" style="text;html=1;strokeColor=none;fillColor=none;align=center;verticalAlign=middle;whiteSpace=wrap;rounded=0;" vertex="1" parent="1">
          <mxGeometry x="710" y="210" width="60" height="30" as="geometry" />
        </mxCell>
        <mxCell id="KkEooCCZQm8k2TNRVlUi-53" value="epic7" style="text;html=1;strokeColor=none;fillColor=none;align=center;verticalAlign=middle;whiteSpace=wrap;rounded=0;" vertex="1" parent="1">
          <mxGeometry x="760" y="240" width="60" height="30" as="geometry" />
        </mxCell>
        <mxCell id="KkEooCCZQm8k2TNRVlUi-55" value="" style="endArrow=none;dashed=1;html=1;dashPattern=1 3;strokeWidth=2;rounded=0;" edge="1" parent="1">
          <mxGeometry width="50" height="50" relative="1" as="geometry">
            <mxPoint x="1020" y="490" as="sourcePoint" />
            <mxPoint x="1020" y="300" as="targetPoint" />
          </mxGeometry>
        </mxCell>
        <mxCell id="KkEooCCZQm8k2TNRVlUi-54" value="epic8" style="text;html=1;strokeColor=none;fillColor=none;align=center;verticalAlign=middle;whiteSpace=wrap;rounded=0;" vertex="1" parent="1">
          <mxGeometry x="970" y="310" width="60" height="30" as="geometry" />
        </mxCell>
      </root>
    </mxGraphModel>
  </diagram>
</mxfile>
